<svg width="118" height="118" viewBox="0 0 118 118" fill="none" xmlns="http://www.w3.org/2000/svg">
<rect x="1" y="1" width="116" height="116" fill="#083C65" fill-opacity="0.68" stroke="#083C65" stroke-width="2"/>
<mask id="mask0_6_12" style="mask-type:alpha" maskUnits="userSpaceOnUse" x="25" y="25" width="68" height="68">
<path d="M70.1311 70.5497C71.7627 68.9388 73.0252 66.993 73.8317 64.8467C74.6381 62.7003 74.9692 60.4045 74.802 58.1178C74.6351 55.8312 73.9744 53.6079 72.8654 51.6013C71.7563 49.5946 70.2254 47.8523 68.3781 46.4944C67.7896 46.0604 67.0919 45.7987 66.3632 45.7386C65.6344 45.6785 64.9033 45.8224 64.2517 46.1541C63.6103 46.4776 63.0716 46.9734 62.6963 47.586C62.321 48.1985 62.1238 48.9036 62.1269 49.622L62.0874 57.9818L55.8524 57.9483V49.6099H55.855C55.8563 48.886 55.6568 48.1758 55.2789 47.5584C54.901 46.9409 54.3594 46.4402 53.7142 46.1119C53.093 45.7858 52.3935 45.6386 51.6935 45.6866C50.9936 45.7346 50.3208 45.976 49.7499 46.3839C47.6982 47.8581 46.0283 49.8013 44.8795 52.0514C43.7306 54.3016 43.136 56.7937 43.1451 59.3202C43.195 62.0414 43.9354 64.7053 45.2968 67.062C46.6582 69.4187 48.5959 71.391 50.9282 72.7938V90.2597C50.9282 90.7038 51.1047 91.1298 51.4187 91.4438C51.7328 91.7579 52.1587 91.9343 52.6029 91.9343C53.047 91.9343 53.473 91.7579 53.787 91.4438C54.1011 91.1298 54.2775 90.7038 54.2775 90.2597V74.3585C55.7308 74.837 57.2484 75.092 58.7783 75.1148H59C60.601 75.1148 62.1919 74.8737 63.7205 74.3981V90.2603C63.7205 90.7045 63.897 91.1304 64.211 91.4445C64.5251 91.7585 64.951 91.935 65.3952 91.935C65.8393 91.935 66.2653 91.7585 66.5793 91.4445C66.8934 91.1304 67.0698 90.7045 67.0698 90.2603V72.8909C68.1823 72.2383 69.2104 71.4516 70.1311 70.5484V70.5497ZM58.8218 71.7662C55.5628 71.6653 52.467 70.3164 50.174 67.9982C47.8798 65.6808 46.5629 62.5711 46.4951 59.3108C46.4886 57.3176 46.9588 55.3516 47.8664 53.577C48.774 51.8023 50.0927 50.2704 51.7126 49.1089C51.7829 49.0543 51.8695 49.0249 51.9585 49.0251C52.0409 49.0277 52.1215 49.0493 52.1943 49.0881C52.2905 49.1366 52.3717 49.2106 52.4288 49.302C52.486 49.3934 52.517 49.4988 52.5185 49.6066V57.943C52.5176 58.3886 52.6048 58.83 52.7751 59.2418C52.9454 59.6537 53.1954 60.0278 53.5108 60.3426C53.8261 60.6575 54.2006 60.9069 54.6127 61.0766C55.0248 61.2462 55.4663 61.3327 55.912 61.3311H62.1008C62.5466 61.3326 62.9883 61.246 63.4005 61.0764C63.8127 60.9067 64.1874 60.6573 64.5029 60.3424C64.8186 60.0278 65.0687 59.6538 65.2389 59.242C65.4091 58.8301 65.4959 58.3886 65.4943 57.943V49.6193C65.4903 49.5189 65.5159 49.4196 65.5681 49.3338C65.6203 49.248 65.6967 49.1795 65.7877 49.137C65.8877 49.0857 66.0002 49.0637 66.1122 49.0736C66.2242 49.0834 66.3312 49.1247 66.4207 49.1926C67.8364 50.2353 69.0165 51.5646 69.884 53.0939C70.7514 54.6232 71.2869 56.3181 71.4554 58.0682C71.6236 59.8184 71.4208 61.5843 70.8603 63.2508C70.2998 64.9172 69.3941 66.4468 68.2024 67.7395C67.0107 69.0322 65.5598 70.0591 63.9443 70.753C62.3289 71.447 60.5852 71.7924 58.8272 71.7669L58.8218 71.7662Z" fill="black"/>
<path d="M88.1363 53.5025C89.3649 52.7469 90.2454 51.5368 90.5865 50.1353C90.9276 48.7339 90.7016 47.2545 89.9576 46.0188L89.9342 45.9793L85.0435 38.0113C84.2815 36.7821 83.064 35.9043 81.657 35.5695C80.25 35.2348 78.7677 35.4704 77.5337 36.2248L76.4164 36.908C75.6862 37.3516 74.8503 37.591 73.996 37.6011C73.1418 37.6112 72.3004 37.3918 71.5599 36.9657C70.8258 36.5572 70.2141 35.9599 69.7881 35.2358C69.3621 34.5116 69.1374 33.6868 69.137 32.8467C69.137 29.1055 66.1066 26.0724 62.3648 26.0644H55.636C53.8331 26.0725 52.1067 26.7943 50.8345 28.0719C49.5653 29.3522 48.8556 31.0835 48.8611 32.8862C48.8602 33.7128 48.6391 34.5242 48.2207 35.237C47.8023 35.9499 47.2016 36.5384 46.4804 36.9422C46.4563 36.9422 46.4435 36.9784 46.4228 36.9918L46.3859 37.0072C45.6491 37.4195 44.8155 37.6277 43.9714 37.6103C43.1272 37.5929 42.3029 37.3504 41.5837 36.908L40.4664 36.2382C39.2315 35.4803 37.7465 35.2428 36.3368 35.5778C34.9272 35.9128 33.7078 36.7929 32.9459 38.0254L28.066 45.9766C27.3077 47.2114 27.07 48.6965 27.405 50.1063C27.7401 51.516 28.6204 52.7354 29.8531 53.4971L29.8846 53.5152C30.9017 54.1566 31.7383 55.0469 32.3152 56.1019C32.8922 57.1568 33.1904 58.3415 33.1817 59.5439C33.1804 60.7366 32.875 61.9092 32.2943 62.951C31.7137 63.9928 30.8769 64.8693 29.8632 65.4976C28.6351 66.2537 27.755 67.4638 27.4141 68.8651C27.0732 70.2664 27.299 71.7456 28.0425 72.9813L28.066 73.0208L32.9539 80.9808V80.9781C33.4444 81.7757 34.1313 82.4341 34.949 82.8904C35.7667 83.3466 36.6878 83.5854 37.6242 83.5838C38.629 83.5838 39.6137 83.3065 40.4664 82.778L41.5837 82.0941C42.3166 81.6487 43.1557 81.4084 44.0132 81.3984C44.8707 81.3884 45.7152 81.609 46.4583 82.0371L47.2956 80.5876L48.0124 79.0697C46.7577 78.3675 45.3382 78.013 43.9007 78.0429C42.4632 78.0728 41.0598 78.486 39.8354 79.2398L38.7181 79.9231C38.2398 80.2122 37.6667 80.301 37.1234 80.1701C36.58 80.0391 36.1103 79.699 35.8162 79.2237L30.9336 71.2926L30.9155 71.2638H30.9182C30.6278 70.7855 30.5383 70.2119 30.6692 69.6679C30.8 69.1239 31.1407 68.6537 31.6169 68.3599C33.1266 67.4194 34.3705 66.1081 35.2302 64.5508C36.0899 62.9936 36.5368 61.2423 36.5283 59.4635C36.5251 57.6991 36.0724 55.9646 35.213 54.4237C34.3536 52.8827 33.1157 51.5861 31.6162 50.6562L31.5928 50.6428C31.1214 50.3449 30.7866 49.873 30.6612 49.3296C30.5358 48.7863 30.6298 48.2154 30.9229 47.741L35.8055 39.7811C36.1019 39.3025 36.5754 38.9605 37.1229 38.8297C37.6703 38.6988 38.2474 38.7896 38.7281 39.0824L39.8454 39.7523H39.8428C41.0982 40.5259 42.544 40.9354 44.0187 40.9352C45.4468 40.9258 46.8494 40.5548 48.0954 39.8568H48.1222L48.1745 39.8333L48.2656 39.7677H48.2682C49.4706 39.0575 50.4663 38.045 51.1562 36.8308C51.8461 35.6167 52.2063 34.2431 52.201 32.8467C52.2015 31.9364 52.5634 31.0635 53.2071 30.4198C53.8508 29.7761 54.7237 29.4142 55.634 29.4137H62.3628C63.2718 29.4151 64.1431 29.7772 64.7854 30.4205C65.4277 31.0638 65.7884 31.9356 65.7884 32.8447C65.7951 34.2866 66.1845 35.701 66.9168 36.9432C67.649 38.1854 68.6979 39.2109 69.9563 39.915C71.2142 40.6192 72.6367 40.9764 74.078 40.9501C75.5194 40.9239 76.9279 40.5151 78.1594 39.7657L79.2767 39.0824C79.7566 38.7892 80.3331 38.698 80.88 38.829C81.4269 38.9599 81.8996 39.3023 82.1946 39.7811L87.0692 47.7176L87.0873 47.7464L87.0852 47.7437C87.3759 48.222 87.4655 48.7958 87.3346 49.34C87.2037 49.8841 86.8629 50.3544 86.3866 50.6482C84.8817 51.5831 83.6401 52.8865 82.7793 54.435C81.9185 55.9835 81.4669 57.726 81.4671 59.4977C81.4672 61.2697 81.9189 63.0125 82.7796 64.5613C83.6404 66.1102 84.8818 67.4141 86.3866 68.3499C86.8605 68.6453 87.199 69.1154 87.3287 69.6585C87.4585 70.2017 87.3691 70.774 87.0799 71.2517L82.1906 79.2117C81.895 79.6906 81.4216 80.0328 80.8742 80.1634C80.3268 80.294 79.7499 80.2022 79.27 79.9083L78.1527 79.2385C76.9224 78.4878 75.514 78.0789 74.073 78.0541C72.632 78.0292 71.2104 78.3893 69.9549 79.0971L69.89 79.1333H69.8926C69.7063 79.2432 69.5435 79.3888 69.4136 79.5617C69.2837 79.7347 69.1893 79.9317 69.1358 80.1413C69.0823 80.3508 69.0707 80.5689 69.1017 80.783C69.1327 80.9971 69.2057 81.2029 69.3166 81.3887C69.5436 81.7723 69.9121 82.0513 70.3428 82.1658C70.7736 82.2804 71.232 82.2211 71.6195 82.001C72.3554 81.5899 73.1876 81.3828 74.0302 81.4008C74.8729 81.4188 75.6955 81.6614 76.4131 82.1034L77.5304 82.7733C80.1 84.3508 83.462 83.5503 85.0509 80.9861L89.9388 73.0282C90.6978 71.7932 90.9358 70.3076 90.6008 68.8974C90.2657 67.4871 89.3849 66.2673 88.1517 65.5057C87.1351 64.8699 86.2969 63.986 85.7158 62.9372C85.1348 61.8884 84.8299 60.7091 84.8299 59.5101C84.8299 58.3111 85.1348 57.1318 85.7158 56.083C86.2969 55.0342 87.1351 54.1503 88.1517 53.5145L88.1363 53.5025Z" fill="black"/>
</mask>
<g mask="url(#mask0_6_12)">
<rect x="23.8733" y="26.3239" width="66.9859" height="66.9859" fill="#ADADAD"/>
</g>
</svg>
